<svg xmlns="http://www.w3.org/2000/svg" viewBox="0 0 1600 1000" role="img" aria-labelledby="title desc">
  <title id="title">OROT.DEV demo hero</title>
  <desc id="desc">Abstract content studio dashboard scene for the OROT.DEV demo site.</desc>
  <defs>
    <linearGradient id="bg" x1="0" x2="1" y1="0" y2="1">
      <stop offset="0" stop-color="#102a43"/>
      <stop offset="0.46" stop-color="#1f6f78"/>
      <stop offset="1" stop-color="#f4b860"/>
    </linearGradient>
    <linearGradient id="panel" x1="0" x2="1" y1="0" y2="1">
      <stop offset="0" stop-color="#ffffff" stop-opacity="0.96"/>
      <stop offset="1" stop-color="#d7fff1" stop-opacity="0.82"/>
    </linearGradient>
  </defs>
  <rect width="1600" height="1000" fill="url(#bg)"/>
  <rect x="112" y="112" width="1376" height="776" rx="44" fill="#071923" opacity="0.36"/>
  <rect x="176" y="176" width="512" height="648" rx="28" fill="url(#panel)"/>
  <rect x="744" y="176" width="680" height="292" rx="28" fill="#ffffff" opacity="0.88"/>
  <rect x="744" y="532" width="314" height="292" rx="28" fill="#ffffff" opacity="0.84"/>
  <rect x="1110" y="532" width="314" height="292" rx="28" fill="#ffffff" opacity="0.84"/>
  <rect x="232" y="248" width="256" height="28" rx="14" fill="#102a43"/>
  <rect x="232" y="310" width="392" height="18" rx="9" fill="#486581"/>
  <rect x="232" y="350" width="336" height="18" rx="9" fill="#829ab1"/>
  <rect x="232" y="430" width="360" height="180" rx="20" fill="#1f6f78"/>
  <path d="M264 568l84-94 62 64 54-46 96 76z" fill="#f4b860"/>
  <circle cx="512" cy="476" r="34" fill="#d7fff1"/>
  <rect x="800" y="248" width="228" height="26" rx="13" fill="#102a43"/>
  <rect x="800" y="316" width="544" height="18" rx="9" fill="#486581"/>
  <rect x="800" y="356" width="420" height="18" rx="9" fill="#829ab1"/>
  <path d="M820 430c84-92 156-106 216-42 70 74 136 68 208-18 50-60 94-75 138-44" fill="none" stroke="#1f6f78" stroke-width="18" stroke-linecap="round"/>
  <rect x="800" y="588" width="184" height="24" rx="12" fill="#102a43"/>
  <rect x="800" y="654" width="160" height="90" rx="18" fill="#f4b860"/>
  <rect x="996" y="654" width="34" height="90" rx="17" fill="#1f6f78"/>
  <rect x="1168" y="588" width="178" height="24" rx="12" fill="#102a43"/>
  <circle cx="1268" cy="700" r="72" fill="none" stroke="#1f6f78" stroke-width="26"/>
  <path d="M1268 628a72 72 0 0 1 68 96" fill="none" stroke="#f4b860" stroke-width="26" stroke-linecap="round"/>
  <text x="232" y="722" fill="#102a43" font-family="Inter, Arial, sans-serif" font-size="56" font-weight="800">OROT.DEV</text>
  <text x="232" y="774" fill="#486581" font-family="Inter, Arial, sans-serif" font-size="28" font-weight="600">Content Studio Demo</text>
</svg>
